<svg width="199" height="45" viewBox="0 0 199 45" fill="none" xmlns="http://www.w3.org/2000/svg">
<path d="M50.9943 8.77273H54.5682L62.9716 29.2983H63.2614L71.6648 8.77273H75.2386V33.5H72.4375V14.7131H72.196L64.4688 33.5H61.7642L54.0369 14.7131H53.7955V33.5H50.9943V8.77273Z" fill="black" fill-opacity="0.7"/>
<path d="M92.5435 25.9176V14.9545H95.3929V33.5H92.5435V30.3608H92.3503C91.9157 31.3026 91.2395 32.1035 90.3219 32.7635C89.4043 33.4155 88.2452 33.7415 86.8446 33.7415C85.6856 33.7415 84.6552 33.4879 83.7537 32.9808C82.8522 32.4657 82.1439 31.6929 81.6287 30.6626C81.1136 29.6243 80.856 28.3163 80.856 26.7386V14.9545H83.7054V26.5455C83.7054 27.8977 84.0838 28.9763 84.8404 29.7812C85.6051 30.5862 86.579 30.9886 87.7623 30.9886C88.4706 30.9886 89.191 30.8075 89.9235 30.4453C90.664 30.0831 91.2838 29.5277 91.7829 28.7791C92.29 28.0305 92.5435 27.0767 92.5435 25.9176Z" fill="black" fill-opacity="0.7"/>
<path d="M113.748 19.108L111.189 19.8324C111.028 19.4058 110.79 18.9912 110.476 18.5888C110.17 18.1783 109.752 17.8402 109.221 17.5746C108.689 17.3089 108.009 17.1761 107.18 17.1761C106.045 17.1761 105.099 17.4377 104.343 17.9609C103.594 18.4761 103.22 19.1321 103.22 19.929C103.22 20.6373 103.477 21.1967 103.993 21.6072C104.508 22.0178 105.313 22.3598 106.407 22.6335L109.16 23.3097C110.818 23.7121 112.054 24.3279 112.867 25.157C113.68 25.978 114.086 27.0365 114.086 28.3324C114.086 29.3949 113.78 30.3447 113.169 31.1818C112.565 32.0189 111.72 32.679 110.633 33.1619C109.547 33.6449 108.283 33.8864 106.842 33.8864C104.95 33.8864 103.385 33.4759 102.145 32.6548C100.906 31.8338 100.121 30.6345 99.7908 29.0568L102.495 28.3807C102.753 29.3788 103.24 30.1274 103.956 30.6264C104.681 31.1255 105.627 31.375 106.794 31.375C108.122 31.375 109.176 31.0933 109.957 30.5298C110.746 29.9583 111.14 29.2741 111.14 28.4773C111.14 27.8333 110.915 27.294 110.464 26.8594C110.013 26.4167 109.321 26.0866 108.387 25.8693L105.297 25.1449C103.598 24.7424 102.351 24.1186 101.554 23.2734C100.765 22.4202 100.37 21.3537 100.37 20.0739C100.37 19.0275 100.664 18.1018 101.252 17.2969C101.847 16.492 102.656 15.8601 103.679 15.4013C104.709 14.9425 105.876 14.7131 107.18 14.7131C109.015 14.7131 110.456 15.1155 111.502 15.9205C112.557 16.7254 113.306 17.7879 113.748 19.108Z" fill="black" fill-opacity="0.7"/>
<path d="M118.376 33.5V14.9545H121.225V33.5H118.376ZM119.824 11.8636C119.269 11.8636 118.79 11.6745 118.388 11.2962C117.993 10.9179 117.796 10.4631 117.796 9.93182C117.796 9.40057 117.993 8.94579 118.388 8.56747C118.79 8.18916 119.269 8 119.824 8C120.38 8 120.855 8.18916 121.249 8.56747C121.652 8.94579 121.853 9.40057 121.853 9.93182C121.853 10.4631 121.652 10.9179 121.249 11.2962C120.855 11.6745 120.38 11.8636 119.824 11.8636Z" fill="black" fill-opacity="0.7"/>
<path d="M133.978 33.8864C132.239 33.8864 130.742 33.4759 129.487 32.6548C128.231 31.8338 127.265 30.7029 126.589 29.2621C125.913 27.8213 125.575 26.1752 125.575 24.3239C125.575 22.4403 125.921 20.7782 126.613 19.3374C127.313 17.8885 128.287 16.7576 129.535 15.9446C130.79 15.1236 132.255 14.7131 133.93 14.7131C135.234 14.7131 136.409 14.9545 137.455 15.4375C138.502 15.9205 139.359 16.5966 140.027 17.4659C140.695 18.3352 141.11 19.3494 141.271 20.5085H138.421C138.204 19.6634 137.721 18.9148 136.972 18.2628C136.232 17.6027 135.234 17.2727 133.978 17.2727C132.867 17.2727 131.893 17.5625 131.056 18.142C130.227 18.7135 129.579 19.5225 129.112 20.5689C128.653 21.6072 128.424 22.8267 128.424 24.2273C128.424 25.66 128.649 26.9077 129.1 27.9702C129.559 29.0327 130.203 29.8577 131.032 30.4453C131.869 31.0329 132.851 31.3267 133.978 31.3267C134.719 31.3267 135.391 31.1979 135.994 30.9403C136.598 30.6828 137.109 30.3125 137.528 29.8295C137.946 29.3466 138.244 28.767 138.421 28.0909H141.271C141.11 29.1856 140.711 30.1716 140.075 31.049C139.447 31.9183 138.614 32.6106 137.576 33.1257C136.546 33.6328 135.346 33.8864 133.978 33.8864Z" fill="black" fill-opacity="0.7"/>
<path d="M141.947 11.429V8.77273H160.492V11.429H152.717V33.5H149.722V11.429H141.947Z" fill="#FF0000"/>
<path d="M169.572 33.8864C167.897 33.8864 166.429 33.4879 165.165 32.6911C163.909 31.8942 162.927 30.7794 162.219 29.3466C161.518 27.9138 161.168 26.2396 161.168 24.3239C161.168 22.392 161.518 20.7057 162.219 19.2649C162.927 17.8241 163.909 16.7053 165.165 15.9084C166.429 15.1115 167.897 14.7131 169.572 14.7131C171.246 14.7131 172.711 15.1115 173.967 15.9084C175.23 16.7053 176.212 17.8241 176.913 19.2649C177.621 20.7057 177.975 22.392 177.975 24.3239C177.975 26.2396 177.621 27.9138 176.913 29.3466C176.212 30.7794 175.23 31.8942 173.967 32.6911C172.711 33.4879 171.246 33.8864 169.572 33.8864ZM169.572 31.3267C170.844 31.3267 171.89 31.0007 172.711 30.3487C173.532 29.6967 174.14 28.8395 174.534 27.777C174.929 26.7145 175.126 25.5634 175.126 24.3239C175.126 23.0843 174.929 21.9292 174.534 20.8587C174.14 19.7881 173.532 18.9228 172.711 18.2628C171.89 17.6027 170.844 17.2727 169.572 17.2727C168.3 17.2727 167.254 17.6027 166.433 18.2628C165.612 18.9228 165.004 19.7881 164.609 20.8587C164.215 21.9292 164.018 23.0843 164.018 24.3239C164.018 25.5634 164.215 26.7145 164.609 27.777C165.004 28.8395 165.612 29.6967 166.433 30.3487C167.254 31.0007 168.3 31.3267 169.572 31.3267Z" fill="#EE0C0C"/>
<path d="M182.325 40.4545V14.9545H185.078V17.9006H185.416C185.625 17.5786 185.915 17.1681 186.285 16.669C186.663 16.1619 187.203 15.7112 187.903 15.3168C188.611 14.9143 189.569 14.7131 190.776 14.7131C192.338 14.7131 193.714 15.1035 194.906 15.8842C196.097 16.665 197.027 17.7718 197.695 19.2045C198.363 20.6373 198.697 22.3277 198.697 24.2756C198.697 26.2396 198.363 27.942 197.695 29.3828C197.027 30.8156 196.101 31.9264 194.918 32.7152C193.735 33.496 192.37 33.8864 190.825 33.8864C189.633 33.8864 188.68 33.6892 187.963 33.2947C187.247 32.8923 186.695 32.4375 186.309 31.9304C185.923 31.4152 185.625 30.9886 185.416 30.6506H185.174V40.4545H182.325ZM185.126 24.2273C185.126 25.6278 185.331 26.8634 185.742 27.9339C186.152 28.9964 186.752 29.8295 187.541 30.4332C188.329 31.0289 189.295 31.3267 190.438 31.3267C191.63 31.3267 192.624 31.0128 193.421 30.3849C194.226 29.7491 194.829 28.8958 195.232 27.8253C195.642 26.7467 195.847 25.5473 195.847 24.2273C195.847 22.9233 195.646 21.7481 195.244 20.7017C194.849 19.6473 194.25 18.8142 193.445 18.2024C192.648 17.5826 191.646 17.2727 190.438 17.2727C189.279 17.2727 188.305 17.5665 187.517 18.1541C186.728 18.7337 186.132 19.5466 185.73 20.593C185.327 21.6314 185.126 22.8428 185.126 24.2273Z" fill="#F70000"/>
<circle cx="22.5" cy="22.5" r="22" fill="#040404" stroke="black"/>
<circle cx="22.5" cy="22.5" r="20" stroke="#F9F9F9"/>
<path d="M12 28V18" stroke="white" stroke-opacity="0.59" stroke-width="3" stroke-linecap="round"/>
<path d="M33.2014 28V18" stroke="white" stroke-opacity="0.59" stroke-width="3" stroke-linecap="round"/>
<path d="M17 14V33" stroke="white" stroke-opacity="0.59" stroke-width="3" stroke-linecap="round"/>
<path d="M28.2014 14V33" stroke="white" stroke-opacity="0.59" stroke-width="3" stroke-linecap="round"/>
<path d="M22 37L22.2014 8.00001" stroke="white" stroke-opacity="0.59" stroke-width="3" stroke-linecap="round"/>
</svg>
